REM DIRINDEX 1\2,1\3
REM DIRNAME cjc039,folder01,folder02
TITLE ""
FILE "2141-2160.mp3" MP3
  TRACK 01 AUDIO
    TITLE "0:"
    INDEX 01 00:00:00
  TRACK 02 AUDIO
    TITLE "2:cjc039_3281"
    INDEX 01 00:00:25
  TRACK 03 AUDIO
    TITLE "0:"
    INDEX 01 00:01:26
  TRACK 04 AUDIO
    TITLE "3:cjc039_3282"
    INDEX 01 00:02:04
  TRACK 05 AUDIO
    TITLE "0:"
    INDEX 01 00:05:50
  TRACK 06 AUDIO
    TITLE "2:cjc039_3283"
    INDEX 01 00:07:27
  TRACK 07 AUDIO
    TITLE "0:"
    INDEX 01 00:08:54
  TRACK 08 AUDIO
    TITLE "3:cjc039_3284"
    INDEX 01 00:09:32
  TRACK 09 AUDIO
    TITLE "0:"
    INDEX 01 00:15:05
  TRACK 10 AUDIO
    TITLE "2:cjc039_3285"
    INDEX 01 00:16:53
  TRACK 11 AUDIO
    TITLE "0:"
    INDEX 01 00:17:69
  TRACK 12 AUDIO
    TITLE "3:cjc039_3286"
    INDEX 01 00:18:46
  TRACK 13 AUDIO
    TITLE "0:"
    INDEX 01 00:21:66
  TRACK 14 AUDIO
    TITLE "2:cjc039_3287"
    INDEX 01 00:23:40
  TRACK 15 AUDIO
    TITLE "0:"
    INDEX 01 00:24:69
  TRACK 16 AUDIO
    TITLE "3:cjc039_3288"
    INDEX 01 00:25:43
  TRACK 17 AUDIO
    TITLE "0:"
    INDEX 01 00:29:05
  TRACK 18 AUDIO
    TITLE "2:cjc039_3289"
    INDEX 01 00:30:54
  TRACK 19 AUDIO
    TITLE "0:"
    INDEX 01 00:32:01
  TRACK 20 AUDIO
    TITLE "3:cjc039_3290"
    INDEX 01 00:32:50
  TRACK 21 AUDIO
    TITLE "0:"
    INDEX 01 00:36:05
  TRACK 22 AUDIO
    TITLE "2:cjc039_3291"
    INDEX 01 00:37:56
  TRACK 23 AUDIO
    TITLE "0:"
    INDEX 01 00:39:25
  TRACK 24 AUDIO
    TITLE "3:cjc039_3292"
    INDEX 01 00:39:72
  TRACK 25 AUDIO
    TITLE "0:"
    INDEX 01 00:44:22
  TRACK 26 AUDIO
    TITLE "2:cjc039_3293"
    INDEX 01 00:45:73
  TRACK 27 AUDIO
    TITLE "0:"
    INDEX 01 00:47:07
  TRACK 28 AUDIO
    TITLE "3:cjc039_3294"
    INDEX 01 00:47:60
  TRACK 29 AUDIO
    TITLE "0:"
    INDEX 01 00:51:26
  TRACK 30 AUDIO
    TITLE "2:cjc039_3295"
    INDEX 01 00:53:02
  TRACK 31 AUDIO
    TITLE "0:"
    INDEX 01 00:56:27
  TRACK 32 AUDIO
    TITLE "3:cjc039_3296"
    INDEX 01 00:56:74
  TRACK 33 AUDIO
    TITLE "0:"
    INDEX 01 01:00:19
  TRACK 34 AUDIO
    TITLE "2:cjc039_3297"
    INDEX 01 01:01:70
  TRACK 35 AUDIO
    TITLE "0:"
    INDEX 01 01:03:22
  TRACK 36 AUDIO
    TITLE "3:cjc039_3298"
    INDEX 01 01:03:73
  TRACK 37 AUDIO
    TITLE "0:"
    INDEX 01 01:08:11
  TRACK 38 AUDIO
    TITLE "2:cjc039_3299"
    INDEX 01 01:09:56
  TRACK 39 AUDIO
    TITLE "0:"
    INDEX 01 01:11:07
  TRACK 40 AUDIO
    TITLE "3:cjc039_3300"
    INDEX 01 01:11:60
  TRACK 41 AUDIO
    TITLE "0:"
    INDEX 01 01:15:72
  TRACK 42 AUDIO
    TITLE "2:cjc039_3301"
    INDEX 01 01:17:49
  TRACK 43 AUDIO
    TITLE "0:"
    INDEX 01 01:18:62
  TRACK 44 AUDIO
    TITLE "3:cjc039_3302"
    INDEX 01 01:19:38
  TRACK 45 AUDIO
    TITLE "0:"
    INDEX 01 01:23:11
  TRACK 46 AUDIO
    TITLE "2:cjc039_3303"
    INDEX 01 01:24:69
  TRACK 47 AUDIO
    TITLE "0:"
    INDEX 01 01:26:17
  TRACK 48 AUDIO
    TITLE "3:cjc039_3304"
    INDEX 01 01:26:64
  TRACK 49 AUDIO
    TITLE "0:"
    INDEX 01 01:31:00
  TRACK 50 AUDIO
    TITLE "2:cjc039_3305"
    INDEX 01 01:32:47
  TRACK 51 AUDIO
    TITLE "0:"
    INDEX 01 01:34:18
  TRACK 52 AUDIO
    TITLE "3:cjc039_3306"
    INDEX 01 01:34:67
  TRACK 53 AUDIO
    TITLE "0:"
    INDEX 01 01:39:19
  TRACK 54 AUDIO
    TITLE "2:cjc039_3307"
    INDEX 01 01:40:70
  TRACK 55 AUDIO
    TITLE "0:"
    INDEX 01 01:42:24
  TRACK 56 AUDIO
    TITLE "3:cjc039_3308"
    INDEX 01 01:42:71
  TRACK 57 AUDIO
    TITLE "0:"
    INDEX 01 01:46:61
  TRACK 58 AUDIO
    TITLE "2:cjc039_3309"
    INDEX 01 01:48:34
  TRACK 59 AUDIO
    TITLE "0:"
    INDEX 01 01:49:43
  TRACK 60 AUDIO
    TITLE "3:cjc039_3310"
    INDEX 01 01:50:19
  TRACK 61 AUDIO
    TITLE "0:"
    INDEX 01 01:54:46
  TRACK 62 AUDIO
    TITLE "2:cjc039_3311"
    INDEX 01 01:56:18
  TRACK 63 AUDIO
    TITLE "0:"
    INDEX 01 01:57:51
  TRACK 64 AUDIO
    TITLE "3:cjc039_3312"
    INDEX 01 01:58:29
  TRACK 65 AUDIO
    TITLE "0:"
    INDEX 01 02:02:11
  TRACK 66 AUDIO
    TITLE "2:cjc039_3313"
    INDEX 01 02:03:65
  TRACK 67 AUDIO
    TITLE "0:"
    INDEX 01 02:05:13
  TRACK 68 AUDIO
    TITLE "3:cjc039_3314"
    INDEX 01 02:05:60
  TRACK 69 AUDIO
    TITLE "0:"
    INDEX 01 02:09:73
  TRACK 70 AUDIO
    TITLE "2:cjc039_3315"
    INDEX 01 02:11:51
  TRACK 71 AUDIO
    TITLE "0:"
    INDEX 01 02:12:68
  TRACK 72 AUDIO
    TITLE "3:cjc039_3316"
    INDEX 01 02:13:42
  TRACK 73 AUDIO
    TITLE "0:"
    INDEX 01 02:16:58
  TRACK 74 AUDIO
    TITLE "2:cjc039_3317"
    INDEX 01 02:18:37
  TRACK 75 AUDIO
    TITLE "0:"
    INDEX 01 02:19:58
  TRACK 76 AUDIO
    TITLE "3:cjc039_3318"
    INDEX 01 02:20:30
  TRACK 77 AUDIO
    TITLE "0:"
    INDEX 01 02:23:62
  TRACK 78 AUDIO
    TITLE "2:cjc039_3319"
    INDEX 01 02:25:31
  TRACK 79 AUDIO
    TITLE "0:"
    INDEX 01 02:26:54
  TRACK 80 AUDIO
    TITLE "3:cjc039_3320"
    INDEX 01 02:27:26
  TRACK 81 AUDIO
    TITLE "0:"
    INDEX 01 02:32:08
